HIERARCHY
ROOT Hips
{
 OFFSET 0.000000 0.000000 0.000000
 CHANNELS 6 Xposition Yposition Zposition Yrotation Xrotation Zrotation
 JOINT Chest
 {
  OFFSET 0.000000 9.857222 0.000240
  CHANNELS 3 Yrotation Xrotation Zrotation
  JOINT Chest2
  {
   OFFSET 0.000000 10.876940 -0.000436
   CHANNELS 3 Yrotation Xrotation Zrotation
   JOINT Chest3
   {
    OFFSET 0.000000 9.827798 0.000000
    CHANNELS 3 Yrotation Xrotation Zrotation
    JOINT Chest4
    {
     OFFSET 0.000000 9.827798 0.000000
     CHANNELS 3 Yrotation Xrotation Zrotation
     JOINT Neck
     {
      OFFSET 0.000000 13.831992 0.000000
      CHANNELS 3 Yrotation Xrotation Zrotation
      JOINT Head
      {
       OFFSET 0.000000 9.147643 -0.001036
       CHANNELS 3 Yrotation Xrotation Zrotation
       End Site
       {
        OFFSET 0.000000 17.515799 -0.000541
       }
      }
     }
     JOINT RightCollar
     {
      OFFSET -3.001579 7.717577 0.000000
      CHANNELS 3 Yrotation Xrotation Zrotation
      JOINT RightShoulder
      {
       OFFSET -14.002642 0.000000 0.000000
       CHANNELS 3 Yrotation Xrotation Zrotation
       JOINT RightElbow
       {
        OFFSET -30.053852 0.000000 0.000000
        CHANNELS 3 Yrotation Xrotation Zrotation
        JOINT RightWrist
        {
         OFFSET -24.564923 0.000000 -0.000000
         CHANNELS 3 Yrotation Xrotation Zrotation
         End Site
         {
          OFFSET -18.334355 0.000000 0.000000
         }
        }
       }
      }
     }
     JOINT LeftCollar
     {
      OFFSET 3.001579 7.717577 0.000000
      CHANNELS 3 Yrotation Xrotation Zrotation
      JOINT LeftShoulder
      {
       OFFSET 14.002642 0.000000 0.000000
       CHANNELS 3 Yrotation Xrotation Zrotation
       JOINT LeftElbow
       {
        OFFSET 30.053852 0.000000 0.000000
        CHANNELS 3 Yrotation Xrotation Zrotation
        JOINT LeftWrist
        {
         OFFSET 24.564923 0.000000 -0.000000
         CHANNELS 3 Yrotation Xrotation Zrotation
         End Site
         {
          OFFSET 18.334355 0.000000 0.000000
         }
        }
       }
      }
     }
    }
   }
  }
 }
 JOINT RightHip
 {
  OFFSET -8.003235 -0.001175 -0.000120
  CHANNELS 3 Yrotation Xrotation Zrotation
  JOINT RightKnee
  {
   OFFSET 0.000000 -41.759727 0.000113
   CHANNELS 3 Yrotation Xrotation Zrotation
   JOINT RightAnkle
   {
    OFFSET 0.000000 -40.728748 0.000159
    CHANNELS 3 Yrotation Xrotation Zrotation
    JOINT RightToe
    {
     OFFSET 0.000000 -6.515296 14.732841
     CHANNELS 3 Yrotation Xrotation Zrotation
     End Site
     {
      OFFSET 0.000000 -1.502839 6.412115
     }
    }
   }
  }
 }
 JOINT LeftHip
 {
  OFFSET 8.003235 -0.001175 -0.000120
  CHANNELS 3 Yrotation Xrotation Zrotation
  JOINT LeftKnee
  {
   OFFSET 0.000000 -41.759727 0.000113
   CHANNELS 3 Yrotation Xrotation Zrotation
   JOINT LeftAnkle
   {
    OFFSET 0.000000 -40.728748 0.000159
    CHANNELS 3 Yrotation Xrotation Zrotation
    JOINT LeftToe
    {
     OFFSET 0.000000 -6.515296 14.732841
     CHANNELS 3 Yrotation Xrotation Zrotation
     End Site
     {
      OFFSET 0.000000 -1.502839 6.412115
     }
    }
   }
  }
 }
}
MOTION
Frames: 14
Frame Time: 0.016667
0.000000 88.822259 0.000000 0.000000 -5.826342 0.000000 0.000000 11.116423 0.000000 0.000000 -5.290081 0.000000 0.000000 0.000000 0.000000 0.000000 0.000000 0.000000 0.000000 12.665069 0.000000 0.000000 0.575450 0.000000 0.000000 0.000000 0.000000 0.000000 0.000000 0.000000 2.337306 0.000000 0.000000 -2.337306 0.000000 0.000000 0.000000 0.000000 0.000000 0.000000 0.000000 0.000000 -2.337306 0.000000 0.000000 2.337306 0.000000 0.000000 0.000000 8.578828 0.000000 0.000000 1.905768 0.000000 0.000000 -4.658254 0.000000 0.000000 0.000000 0.000000 0.000000 8.578828 0.000000 0.000000 1.905768 0.000000 0.000000 -4.658254 0.000000 0.000000 0.000000 0.000000
2.306806 90.147961 11.442742 -34.067046 -9.852989 -1.007071 3.668877 -0.966381 -1.046043 1.363066 -0.694782 -0.493980 1.363066 -0.694782 -0.493980 1.021726 -0.522191 -0.368933 -5.486166 29.651398 1.467400 -9.996651 19.142310 3.588887 4.988427 24.505813 14.510603 38.775834 -6.764817 74.765121 21.498332 -2.340077 -0.642563 -5.550066 9.278492 -5.385041 -25.604539 25.107467 -21.703571 -40.722627 17.194044 -73.326150 -37.759842 -24.674514 8.736816 10.806384 -3.304107 9.563757 -3.941478 8.929387 -0.261260 4.915887 8.105036 -1.142570 -0.135114 -6.890688 1.119787 0.016104 -0.086997 0.027194 -22.784081 20.241834 -4.751744 21.250462 -3.356107 -8.821682 0.734229 -8.877297 5.481972 -0.191665 0.289273 -0.063862
2.332147 90.148361 11.439751 -34.078830 -9.861720 -1.030844 3.700042 -0.932053 -1.075370 1.362279 -0.693926 -0.504869 1.362279 -0.693926 -0.504869 1.021124 -0.521573 -0.377102 -5.464362 29.664257 1.455677 -9.955478 19.163539 3.563385 5.002157 24.524870 14.515985 38.778181 -6.794784 74.773655 21.612037 -2.301493 -0.634438 -5.539280 9.272631 -5.391808 -25.598909 25.126045 -21.713960 -40.598018 17.159409 -73.202189 -37.769818 -24.472476 8.691130 10.804895 -3.330341 9.605073 -3.876091 8.901474 -0.226146 4.928505 8.155976 -1.165469 -0.164364 -6.882662 1.140490 0.019409 -0.106448 0.029924 -22.818371 20.229369 -4.772429 21.252338 -3.349267 -8.789385 0.788792 -8.895259 5.478673 -0.212466 0.296358 -0.066211
2.363353 90.148074 11.433448 -34.068548 -9.839145 -1.063420 3.711969 -0.917599 -1.105587 1.361236 -0.693617 -0.517712 1.361236 -0.693617 -0.517712 1.020328 -0.521369 -0.386737 -5.442117 29.667011 1.449684 -9.914855 19.166540 3.548680 5.025038 24.535205 14.525886 38.791929 -6.806969 74.794491 21.729928 -2.269320 -0.635883 -5.532784 9.268403 -5.397285 -25.595076 25.145492 -21.723970 -40.516171 17.141163 -73.087890 -37.800650 -24.336303 8.711356 10.801736 -3.338133 9.640225 -3.820029 8.837640 -0.154198 4.986318 8.205071 -1.240800 -0.207402 -6.867053 1.189207 0.016468 -0.122838 0.031537 -22.870717 20.189275 -4.773648 21.289849 -3.334857 -8.758712 0.778058 -8.908346 5.464490 -0.209943 0.301092 -0.057155
2.401092 90.148433 11.424213 -34.061839 -9.799454 -1.101779 3.727096 -0.905081 -1.137854 1.360604 -0.694320 -0.531748 1.360604 -0.694320 -0.531748 1.019837 -0.521928 -0.397262 -5.420557 29.662487 1.450455 -9.876879 19.156715 3.546588 5.054483 24.540885 14.537080 38.823080 -6.812575 74.824100 21.840816 -2.241765 -0.644012 -5.525959 9.264418 -5.399921 -25.593006 25.158181 -21.732530 -40.496376 17.150830 -72.988745 -37.867969 -24.283069 8.804385 10.809909 -3.332378 9.694183 -3.764889 8.752928 -0.070389 5.050291 8.262214 -1.333715 -0.230743 -6.851226 1.244288 0.013915 -0.141329 0.035844 -22.908889 20.135515 -4.758967 21.322847 -3.335088 -8.732518 0.745865 -8.906406 5.456157 -0.208653 0.308612 -0.048281
2.447267 90.148386 11.404890 -34.078312 -9.700876 -1.155899 3.753197 -0.914914 -1.165461 1.364051 -0.704959 -0.545511 1.364051 -0.704959 -0.545511 1.022397 -0.529940 -0.407557 -5.400796 29.656109 1.456472 -9.843094 19.144051 3.554226 5.084632 24.552603 14.549226 38.868527 -6.818349 74.849618 21.943527 -2.217317 -0.647407 -5.517552 9.261637 -5.390656 -25.592597 25.171582 -21.743040 -40.501690 17.167021 -72.891824 -37.915064 -24.240982 8.902790 10.812386 -3.331176 9.754435 -3.747184 8.577526 0.018712 5.170494 8.353822 -1.402732 -0.236766 -6.834931 1.276617 0.010558 -0.161401 0.046041 -22.846978 20.042039 -4.672421 21.372589 -3.329800 -8.713651 0.694225 -8.913232 5.428172 -0.190547 0.324876 -0.032859
2.493147 90.146949 11.375773 -34.115281 -9.571087 -1.222977 3.791263 -0.926815 -1.193846 1.368693 -0.722251 -0.558285 1.368693 -0.722251 -0.558285 1.025848 -0.542942 -0.417093 -5.383218 29.649522 1.465482 -9.813730 19.131420 3.567557 5.114368 24.563927 14.560024 38.941543 -6.818537 74.872528 22.037602 -2.208045 -0.655061 -5.511205 9.262106 -5.375677 -25.591246 25.189278 -21.756866 -40.500963 17.179288 -72.778030 -37.935399 -24.239695 8.984847 10.811587 -3.296401 9.769539 -3.729368 8.341618 0.130097 5.332053 8.493475 -1.469634 -0.254359 -6.828706 1.294604 0.012070 -0.186889 0.062615 -22.730617 19.918145 -4.551755 21.423753 -3.312267 -8.675640 0.665462 -8.948114 5.393275 -0.170246 0.361462 -0.029656
2.540986 90.144833 11.333147 -34.140080 -9.417289 -1.285610 3.810137 -0.955759 -1.242717 1.374080 -0.737110 -0.571242 1.374080 -0.737110 -0.571242 1.029858 -0.554121 -0.426771 -5.368697 29.645489 1.477402 -9.790236 19.123993 3.586391 5.145122 24.576202 14.574584 39.051541 -6.804705 74.884708 22.135883 -2.226789 -0.677644 -5.509414 9.260276 -5.359590 -25.589969 25.203341 -21.767068 -40.475686 17.180275 -72.655763 -37.945633 -24.322485 9.055362 10.795395 -3.196435 9.728955 -3.705504 8.056259 0.256693 5.439842 8.670586 -1.556501 -0.255552 -6.832593 1.311437 0.018651 -0.211840 0.079400 -22.654143 19.764484 -4.429242 21.523518 -3.302171 -8.651566 0.627239 -8.955958 5.363208 -0.167450 0.386139 -0.027108
2.580552 90.143387 11.285204 -34.180069 -9.278388 -1.348424 3.834468 -0.965494 -1.297180 1.380186 -0.746281 -0.585090 1.380186 -0.746281 -0.585090 1.034412 -0.561036 -0.437128 -5.357386 29.645090 1.489831 -9.772422 19.123568 3.606430 5.169975 24.586744 14.584599 39.190106 -6.794350 74.892591 22.226367 -2.262032 -0.720889 -5.509111 9.264569 -5.347513 -25.595892 25.213777 -21.782788 -40.413979 17.176291 -72.514368 -37.978180 -24.493356 9.110773 10.750772 -3.054817 9.655206 -3.675524 7.776345 0.389680 5.529965 8.866658 -1.640097 -0.250570 -6.841881 1.316276 0.027333 -0.240044 0.095678 -22.533098 19.619649 -4.306677 21.591086 -3.281736 -8.602081 0.574581 -8.956487 5.322689 -0.176243 0.400433 -0.028720
2.611665 90.140516 11.229006 -34.214751 -9.151402 -1.411412 3.852112 -0.960383 -1.356092 1.385077 -0.746844 -0.602419 1.385077 -0.746844 -0.602419 1.038058 -0.561503 -0.450118 -5.345169 29.650536 1.507792 -9.753822 19.134402 3.635689 5.192639 24.599427 14.596144 39.350456 -6.794482 74.888824 22.321497 -2.313317 -0.788393 -5.508851 9.267205 -5.348193 -25.605952 25.230825 -21.791354 -40.339054 17.164747 -72.356062 -38.048801 -24.733216 9.155129 10.684042 -2.881082 9.560925 -3.659025 7.497290 0.517566 5.591193 9.082543 -1.701724 -0.233890 -6.865699 1.298527 0.035088 -0.263158 0.111106 -22.439430 19.481794 -4.174845 21.661232 -3.250177 -8.569426 0.577573 -8.954939 5.277766 -0.181108 0.406744 -0.032561
2.631305 90.135550 11.164596 -34.255581 -9.049091 -1.479778 3.869271 -0.933727 -1.414794 1.389541 -0.737845 -0.621352 1.389541 -0.737845 -0.621352 1.041392 -0.554801 -0.464333 -5.329620 29.665366 1.530145 -9.729815 19.162782 3.671474 5.218619 24.615703 14.605625 39.509320 -6.811528 74.876986 22.426533 -2.358140 -0.877464 -5.506388 9.262716 -5.356887 -25.608753 25.250400 -21.792467 -40.261671 17.150731 -72.185824 -38.106284 -24.930694 9.163911 10.619441 -2.752953 9.467880 -3.657004 7.236870 0.646552 5.643957 9.310278 -1.740237 -0.214032 -6.899935 1.257846 0.042137 -0.281914 0.124423 -22.311928 19.377911 -4.022019 21.712311 -3.218599 -8.556618 0.569862 -8.946990 5.240541 -0.186525 0.408998 -0.040016
2.636985 90.126844 11.095425 -34.309220 -8.939323 -1.556959 3.896791 -0.891564 -1.474227 1.392226 -0.729911 -0.641443 1.392226 -0.729911 -0.641443 1.043391 -0.548898 -0.479416 -5.308691 29.693058 1.554462 -9.696218 19.214790 3.708892 5.249970 24.641649 14.612749 39.668171 -6.849631 74.854624 22.538517 -2.375399 -0.978881 -5.504804 9.270752 -5.372939 -25.603923 25.263424 -21.784878 -40.181447 17.143128 -72.023461 -38.193114 -25.151663 9.181380 10.578726 -2.587310 9.358894 -3.663568 6.966589 0.788000 5.719446 9.548538 -1.766334 -0.207371 -6.947785 1.205598 0.047893 -0.294097 0.133816 -22.087693 19.288540 -3.827889 21.706014 -3.197161 -8.536392 0.591291 -8.949745 5.188945 -0.197716 0.421038 -0.052415
2.626401 90.114709 11.031162 -34.408771 -8.884706 -1.643800 3.973613 -0.783912 -1.526299 1.392038 -0.721250 -0.662854 1.392038 -0.721250 -0.662854 1.043234 -0.542451 -0.495494 -5.281527 29.734104 1.576379 -9.650711 19.290890 3.740049 5.274294 24.680878 14.614406 39.838128 -6.897243 74.827437 22.670384 -2.373068 -1.089462 -5.498738 9.276502 -5.394055 -25.587352 25.278184 -21.768194 -40.123099 17.157095 -71.862309 -38.300130 -25.383458 9.214601 10.535620 -2.398246 9.231353 -3.638117 6.757006 0.942520 5.776918 9.783596 -1.784454 -0.189081 -6.998156 1.146024 0.052673 -0.306872 0.137612 -21.724383 19.268464 -3.623141 21.587690 -3.191685 -8.499417 0.623191 -8.948946 5.153164 -0.245321 0.432232 -0.082123
2.621125 90.099833 10.958091 -34.447231 -8.794228 -1.726919 3.991586 -0.717179 -1.604860 1.388397 -0.703573 -0.685642 1.388397 -0.703573 -0.685642 1.040497 -0.529242 -0.512629 -5.246095 29.786275 1.591181 -9.588917 19.386391 3.756424 5.288742 24.707246 14.612772 40.028047 -6.926782 74.808806 22.828903 -2.357093 -1.208837 -5.492679 9.284548 -5.413241 -25.557111 25.286661 -21.746926 -40.088381 17.196455 -71.700738 -38.426564 -25.623366 9.273939 10.480023 -2.217388 9.122049 -3.707477 6.512012 1.074618 5.809708 10.020189 -1.790033 -0.153218 -7.064676 1.080697 0.056921 -0.306058 0.138415 -21.462139 19.205873 -3.427217 21.528035 -3.188238 -8.463147 0.626709 -8.949268 5.112039 -0.282107 0.455244 -0.106588
